# xmcd CD database file
#
# Track frame offsets:
#	182
#	12202
#	32707
#	43950
#	63102
#	80335
#	91247
#	105505
#	122762
#	132595
#
# Disc length: 2126 seconds
#
# Revision: 0
# Processed by: cddbd v1.5.1PL0 Copyright (c) Steve Scherf et al.
# Submitted via: cdripper 1.0.9
#
DISCID=7b084c0a
DTITLE=Tito Rodriguez - Live at the Palladium
DYEAR=1992
DGENRE=Jazz
TTITLE0=Mama Güela
TTITLE1=Satin and Lace
TTITLE2=Te Comiste Un Pan
TTITLE3=Liza
TTITLE4=El Monito Y La Jirafa
TTITLE5=El Pollo De Carlitos
TTITLE6=Double Talk
TTITLE7=El Sabio
TTITLE8=Miedo Al Cha Cha Cha
TTITLE9=El Mundo De Las Locas
EXTD=YEAR: 1992
EXTT0=
EXTT1=
EXTT2=
EXTT3=
EXTT4=
EXTT5=
EXTT6=
EXTT7=
EXTT8=
EXTT9=
PLAYORDER=
